<svg xmlns="http://www.w3.org/2000/svg" width="720" height="344" viewBox="0 0 720 344" font-family="'Encode Sans', ui-sans-serif, system-ui, -apple-system, 'Segoe UI', Roboto, sans-serif" font-size="13"><title>libuv threadpool</title><text x="200" y="38" fill="#1a1714" font-weight="700" font-size="14">libuv threadpool<tspan dx="9" fill="#6b6358" font-weight="400">8 vCPU, higher is better</tspan></text><rect x="200" y="48" width="10" height="10" rx="2" fill="#efe9dd"/><text x="214" y="57" fill="#6b6358" font-size="12">node, 4 threads</text><rect x="329.2" y="48" width="10" height="10" rx="2" fill="#d6431f"/><text x="343.2" y="57" fill="#6b6358" font-size="12">nub, 8 threads</text><line x1="200.0" y1="70" x2="200.0" y2="118" stroke="#e4dccb" stroke-width="1"/><text x="200.0" y="133" text-anchor="middle" fill="#6b6358" font-size="11">0</text><line x1="296.5" y1="70" x2="296.5" y2="118" stroke="#e4dccb" stroke-width="1"/><text x="296.5" y="133" text-anchor="middle" fill="#6b6358" font-size="11">10</text><line x1="393.0" y1="70" x2="393.0" y2="118" stroke="#e4dccb" stroke-width="1"/><text x="393.0" y="133" text-anchor="middle" fill="#6b6358" font-size="11">20</text><line x1="489.5" y1="70" x2="489.5" y2="118" stroke="#e4dccb" stroke-width="1"/><text x="489.5" y="133" text-anchor="middle" fill="#6b6358" font-size="11">30</text><line x1="586.0" y1="70" x2="586.0" y2="118" stroke="#e4dccb" stroke-width="1"/><text x="586.0" y="133" text-anchor="middle" fill="#6b6358" font-size="11">40 req/s</text><text x="188" y="98" text-anchor="end" fill="#1a1714" font-family="'Geist Mono', ui-monospace, SFMono-Regular, Menlo, monospace" font-size="12">bcrypt hashing</text><rect x="200" y="80.5" width="172.7" height="12" rx="4" fill="#efe9dd"/><text x="379.7" y="91.5" fill="#6b6358" font-size="11">18 req/s</text><rect x="200" y="95.5" width="319.4" height="12" rx="4" fill="#d6431f"/><text x="526.4" y="106.5" fill="#1a1714" font-weight="700" font-size="11">33 req/s</text><text x="587.2" y="106.5" fill="#6b6358" font-size="11">1.8× faster</text><line x1="200.0" y1="164" x2="200.0" y2="212" stroke="#e4dccb" stroke-width="1"/><text x="200.0" y="227" text-anchor="middle" fill="#6b6358" font-size="11">0</text><line x1="277.2" y1="164" x2="277.2" y2="212" stroke="#e4dccb" stroke-width="1"/><text x="277.2" y="227" text-anchor="middle" fill="#6b6358" font-size="11">20</text><line x1="354.4" y1="164" x2="354.4" y2="212" stroke="#e4dccb" stroke-width="1"/><text x="354.4" y="227" text-anchor="middle" fill="#6b6358" font-size="11">40</text><line x1="431.6" y1="164" x2="431.6" y2="212" stroke="#e4dccb" stroke-width="1"/><text x="431.6" y="227" text-anchor="middle" fill="#6b6358" font-size="11">60</text><line x1="508.8" y1="164" x2="508.8" y2="212" stroke="#e4dccb" stroke-width="1"/><text x="508.8" y="227" text-anchor="middle" fill="#6b6358" font-size="11">80</text><line x1="586.0" y1="164" x2="586.0" y2="212" stroke="#e4dccb" stroke-width="1"/><text x="586.0" y="227" text-anchor="middle" fill="#6b6358" font-size="11">100 req/s</text><text x="188" y="192" text-anchor="end" fill="#1a1714" font-family="'Geist Mono', ui-monospace, SFMono-Regular, Menlo, monospace" font-size="12">sharp thumbnails</text><rect x="200" y="174.5" width="211.5" height="12" rx="4" fill="#efe9dd"/><text x="418.5" y="185.5" fill="#6b6358" font-size="11">55 req/s</text><rect x="200" y="189.5" width="352.7" height="12" rx="4" fill="#d6431f"/><text x="559.7" y="200.5" fill="#1a1714" font-weight="700" font-size="11">91 req/s</text><text x="620.5" y="200.5" fill="#6b6358" font-size="11">1.7× faster</text><line x1="200.0" y1="258" x2="200.0" y2="306" stroke="#e4dccb" stroke-width="1"/><text x="200.0" y="321" text-anchor="middle" fill="#6b6358" font-size="11">0</text><line x1="296.5" y1="258" x2="296.5" y2="306" stroke="#e4dccb" stroke-width="1"/><text x="296.5" y="321" text-anchor="middle" fill="#6b6358" font-size="11">200</text><line x1="393.0" y1="258" x2="393.0" y2="306" stroke="#e4dccb" stroke-width="1"/><text x="393.0" y="321" text-anchor="middle" fill="#6b6358" font-size="11">400</text><line x1="489.5" y1="258" x2="489.5" y2="306" stroke="#e4dccb" stroke-width="1"/><text x="489.5" y="321" text-anchor="middle" fill="#6b6358" font-size="11">600</text><line x1="586.0" y1="258" x2="586.0" y2="306" stroke="#e4dccb" stroke-width="1"/><text x="586.0" y="321" text-anchor="middle" fill="#6b6358" font-size="11">800 req/s</text><text x="188" y="286" text-anchor="end" fill="#1a1714" font-family="'Geist Mono', ui-monospace, SFMono-Regular, Menlo, monospace" font-size="12">gzip, 1 MB</text><rect x="200" y="268.5" width="302.6" height="12" rx="4" fill="#efe9dd"/><text x="509.6" y="279.5" fill="#6b6358" font-size="11">627 req/s</text><rect x="200" y="283.5" width="366.1" height="12" rx="4" fill="#d6431f"/><text x="573.1" y="294.5" fill="#1a1714" font-weight="700" font-size="11">759 req/s</text><text x="640.5" y="294.5" fill="#6b6358" font-size="11">1.2× faster</text></svg>